<mxfile host="app.diagrams.net" agent="Mozilla/5.0 (Windows NT 10.0; Win64; x64; rv:133.0) Gecko/20100101 Firefox/133.0" version="25.0.1">
  <diagram name="Page-1" id="hN0ax_-HSLGu1kZoknJC">
    <mxGraphModel dx="1449" dy="2400" grid="1" gridSize="10" guides="1" tooltips="1" connect="1" arrows="1" fold="1" page="1" pageScale="1" pageWidth="850" pageHeight="1100" math="0" shadow="0">
      <root>
        <mxCell id="0" />
        <mxCell id="1" parent="0" />
        <mxCell id="9FrqtK7aW0aEr1jrGt7a-1" value="" style="edgeStyle=orthogonalEdgeStyle;rounded=0;orthogonalLoop=1;jettySize=auto;html=1;" edge="1" parent="1" source="9FrqtK7aW0aEr1jrGt7a-16" target="9FrqtK7aW0aEr1jrGt7a-5">
          <mxGeometry relative="1" as="geometry" />
        </mxCell>
        <mxCell id="9FrqtK7aW0aEr1jrGt7a-3" value="Start" style="ellipse;whiteSpace=wrap;html=1;" vertex="1" parent="1">
          <mxGeometry x="365" y="-190" width="120" height="80" as="geometry" />
        </mxCell>
        <mxCell id="9FrqtK7aW0aEr1jrGt7a-4" value="" style="edgeStyle=orthogonalEdgeStyle;rounded=0;orthogonalLoop=1;jettySize=auto;html=1;" edge="1" parent="1" source="9FrqtK7aW0aEr1jrGt7a-5" target="9FrqtK7aW0aEr1jrGt7a-7">
          <mxGeometry relative="1" as="geometry" />
        </mxCell>
        <mxCell id="9FrqtK7aW0aEr1jrGt7a-5" value="&lt;div&gt;input&lt;/div&gt;&lt;div&gt;area_code&lt;br&gt;&lt;/div&gt;" style="shape=parallelogram;perimeter=parallelogramPerimeter;whiteSpace=wrap;html=1;fixedSize=1;" vertex="1" parent="1">
          <mxGeometry x="365" y="320" width="120" height="60" as="geometry" />
        </mxCell>
        <mxCell id="9FrqtK7aW0aEr1jrGt7a-6" value="" style="edgeStyle=orthogonalEdgeStyle;rounded=0;orthogonalLoop=1;jettySize=auto;html=1;" edge="1" parent="1" source="9FrqtK7aW0aEr1jrGt7a-7" target="9FrqtK7aW0aEr1jrGt7a-9">
          <mxGeometry relative="1" as="geometry" />
        </mxCell>
        <mxCell id="9FrqtK7aW0aEr1jrGt7a-7" value="&lt;div&gt;input&lt;/div&gt;&lt;div&gt;phone_number&lt;br&gt;&lt;/div&gt;" style="shape=parallelogram;perimeter=parallelogramPerimeter;whiteSpace=wrap;html=1;fixedSize=1;" vertex="1" parent="1">
          <mxGeometry x="365" y="460" width="120" height="60" as="geometry" />
        </mxCell>
        <mxCell id="9FrqtK7aW0aEr1jrGt7a-8" value="" style="edgeStyle=orthogonalEdgeStyle;rounded=0;orthogonalLoop=1;jettySize=auto;html=1;" edge="1" parent="1" source="9FrqtK7aW0aEr1jrGt7a-9" target="9FrqtK7aW0aEr1jrGt7a-12">
          <mxGeometry relative="1" as="geometry" />
        </mxCell>
        <mxCell id="9FrqtK7aW0aEr1jrGt7a-9" value="&lt;div&gt;input&lt;/div&gt;&lt;div&gt;total_messages&lt;br&gt;&lt;/div&gt;" style="shape=parallelogram;perimeter=parallelogramPerimeter;whiteSpace=wrap;html=1;fixedSize=1;" vertex="1" parent="1">
          <mxGeometry x="365" y="600" width="120" height="60" as="geometry" />
        </mxCell>
        <mxCell id="9FrqtK7aW0aEr1jrGt7a-10" value="" style="edgeStyle=orthogonalEdgeStyle;rounded=0;orthogonalLoop=1;jettySize=auto;html=1;" edge="1" parent="1" source="9FrqtK7aW0aEr1jrGt7a-12" target="9FrqtK7aW0aEr1jrGt7a-15">
          <mxGeometry relative="1" as="geometry" />
        </mxCell>
        <mxCell id="9FrqtK7aW0aEr1jrGt7a-11" value="" style="edgeStyle=orthogonalEdgeStyle;rounded=0;orthogonalLoop=1;jettySize=auto;html=1;" edge="1" parent="1" source="9FrqtK7aW0aEr1jrGt7a-12" target="9FrqtK7aW0aEr1jrGt7a-18">
          <mxGeometry relative="1" as="geometry" />
        </mxCell>
        <mxCell id="9FrqtK7aW0aEr1jrGt7a-12" value="if total_messages &amp;gt; 300" style="rhombus;whiteSpace=wrap;html=1;" vertex="1" parent="1">
          <mxGeometry x="385" y="690" width="80" height="80" as="geometry" />
        </mxCell>
        <mxCell id="9FrqtK7aW0aEr1jrGt7a-13" value="" style="edgeStyle=orthogonalEdgeStyle;rounded=0;orthogonalLoop=1;jettySize=auto;html=1;" edge="1" parent="1" source="9FrqtK7aW0aEr1jrGt7a-15" target="9FrqtK7aW0aEr1jrGt7a-20">
          <mxGeometry relative="1" as="geometry" />
        </mxCell>
        <mxCell id="9FrqtK7aW0aEr1jrGt7a-14" value="" style="edgeStyle=orthogonalEdgeStyle;rounded=0;orthogonalLoop=1;jettySize=auto;html=1;" edge="1" parent="1" source="9FrqtK7aW0aEr1jrGt7a-15" target="9FrqtK7aW0aEr1jrGt7a-22">
          <mxGeometry relative="1" as="geometry" />
        </mxCell>
        <mxCell id="9FrqtK7aW0aEr1jrGt7a-15" value="else if total_messages &amp;gt; 100 and &amp;lt; 300" style="rhombus;whiteSpace=wrap;html=1;" vertex="1" parent="1">
          <mxGeometry x="385" y="850" width="80" height="80" as="geometry" />
        </mxCell>
        <mxCell id="9FrqtK7aW0aEr1jrGt7a-16" value="total_bill = float" style="rounded=0;whiteSpace=wrap;html=1;" vertex="1" parent="1">
          <mxGeometry x="365" y="220" width="120" height="60" as="geometry" />
        </mxCell>
        <mxCell id="9FrqtK7aW0aEr1jrGt7a-17" style="edgeStyle=orthogonalEdgeStyle;rounded=0;orthogonalLoop=1;jettySize=auto;html=1;entryX=0.5;entryY=0;entryDx=0;entryDy=0;" edge="1" parent="1" source="9FrqtK7aW0aEr1jrGt7a-18" target="9FrqtK7aW0aEr1jrGt7a-26">
          <mxGeometry relative="1" as="geometry" />
        </mxCell>
        <mxCell id="9FrqtK7aW0aEr1jrGt7a-18" value="total_bill = (total_messages - 300) * 0.02 + 200 * 0.03 + 5" style="whiteSpace=wrap;html=1;" vertex="1" parent="1">
          <mxGeometry x="525" y="700" width="120" height="60" as="geometry" />
        </mxCell>
        <mxCell id="9FrqtK7aW0aEr1jrGt7a-19" style="edgeStyle=orthogonalEdgeStyle;rounded=0;orthogonalLoop=1;jettySize=auto;html=1;entryX=0;entryY=0.5;entryDx=0;entryDy=0;" edge="1" parent="1" source="9FrqtK7aW0aEr1jrGt7a-20" target="9FrqtK7aW0aEr1jrGt7a-26">
          <mxGeometry relative="1" as="geometry" />
        </mxCell>
        <mxCell id="9FrqtK7aW0aEr1jrGt7a-20" value="total_bill = (total_messages - 100) * 0.02 + 5" style="whiteSpace=wrap;html=1;" vertex="1" parent="1">
          <mxGeometry x="525" y="860" width="120" height="60" as="geometry" />
        </mxCell>
        <mxCell id="9FrqtK7aW0aEr1jrGt7a-21" value="" style="edgeStyle=orthogonalEdgeStyle;rounded=0;orthogonalLoop=1;jettySize=auto;html=1;" edge="1" parent="1" source="9FrqtK7aW0aEr1jrGt7a-22" target="9FrqtK7aW0aEr1jrGt7a-24">
          <mxGeometry relative="1" as="geometry" />
        </mxCell>
        <mxCell id="9FrqtK7aW0aEr1jrGt7a-22" value="&lt;div&gt;else total_messages &amp;lt; 100&lt;br&gt;&lt;/div&gt;" style="rhombus;whiteSpace=wrap;html=1;" vertex="1" parent="1">
          <mxGeometry x="385" y="1010" width="80" height="80" as="geometry" />
        </mxCell>
        <mxCell id="9FrqtK7aW0aEr1jrGt7a-23" style="edgeStyle=orthogonalEdgeStyle;rounded=0;orthogonalLoop=1;jettySize=auto;html=1;entryX=0.5;entryY=1;entryDx=0;entryDy=0;" edge="1" parent="1" source="9FrqtK7aW0aEr1jrGt7a-24" target="9FrqtK7aW0aEr1jrGt7a-26">
          <mxGeometry relative="1" as="geometry" />
        </mxCell>
        <mxCell id="9FrqtK7aW0aEr1jrGt7a-24" value="total_bill = total_messages * 5" style="whiteSpace=wrap;html=1;" vertex="1" parent="1">
          <mxGeometry x="525" y="1020" width="120" height="60" as="geometry" />
        </mxCell>
        <mxCell id="9FrqtK7aW0aEr1jrGt7a-40" style="edgeStyle=orthogonalEdgeStyle;rounded=0;orthogonalLoop=1;jettySize=auto;html=1;" edge="1" parent="1" source="9FrqtK7aW0aEr1jrGt7a-26" target="9FrqtK7aW0aEr1jrGt7a-39">
          <mxGeometry relative="1" as="geometry" />
        </mxCell>
        <mxCell id="9FrqtK7aW0aEr1jrGt7a-26" value="&lt;div&gt;total_bill + 14%&lt;/div&gt;" style="rounded=0;whiteSpace=wrap;html=1;" vertex="1" parent="1">
          <mxGeometry x="720" y="860" width="120" height="60" as="geometry" />
        </mxCell>
        <mxCell id="9FrqtK7aW0aEr1jrGt7a-30" value="" style="edgeStyle=orthogonalEdgeStyle;rounded=0;orthogonalLoop=1;jettySize=auto;html=1;entryX=0.5;entryY=0;entryDx=0;entryDy=0;" edge="1" parent="1" source="9FrqtK7aW0aEr1jrGt7a-3" target="9FrqtK7aW0aEr1jrGt7a-29">
          <mxGeometry relative="1" as="geometry">
            <mxPoint x="425" y="-110" as="sourcePoint" />
            <mxPoint x="425" y="20" as="targetPoint" />
          </mxGeometry>
        </mxCell>
        <mxCell id="9FrqtK7aW0aEr1jrGt7a-32" value="" style="edgeStyle=orthogonalEdgeStyle;rounded=0;orthogonalLoop=1;jettySize=auto;html=1;" edge="1" parent="1" source="9FrqtK7aW0aEr1jrGt7a-29" target="9FrqtK7aW0aEr1jrGt7a-31">
          <mxGeometry relative="1" as="geometry" />
        </mxCell>
        <mxCell id="9FrqtK7aW0aEr1jrGt7a-29" value="&lt;div&gt;input&lt;/div&gt;&lt;div&gt;sentinel_value&lt;br&gt;&lt;/div&gt;" style="shape=parallelogram;perimeter=parallelogramPerimeter;whiteSpace=wrap;html=1;fixedSize=1;" vertex="1" parent="1">
          <mxGeometry x="365" y="-80" width="120" height="60" as="geometry" />
        </mxCell>
        <mxCell id="9FrqtK7aW0aEr1jrGt7a-33" style="edgeStyle=orthogonalEdgeStyle;rounded=0;orthogonalLoop=1;jettySize=auto;html=1;entryX=0.5;entryY=0;entryDx=0;entryDy=0;" edge="1" parent="1" source="9FrqtK7aW0aEr1jrGt7a-31" target="9FrqtK7aW0aEr1jrGt7a-16">
          <mxGeometry relative="1" as="geometry">
            <Array as="points">
              <mxPoint x="510" y="50" />
              <mxPoint x="510" y="170" />
              <mxPoint x="425" y="170" />
            </Array>
          </mxGeometry>
        </mxCell>
        <mxCell id="9FrqtK7aW0aEr1jrGt7a-34" style="edgeStyle=orthogonalEdgeStyle;rounded=0;orthogonalLoop=1;jettySize=auto;html=1;" edge="1" parent="1" source="9FrqtK7aW0aEr1jrGt7a-31" target="9FrqtK7aW0aEr1jrGt7a-35">
          <mxGeometry relative="1" as="geometry">
            <mxPoint x="140" y="100" as="targetPoint" />
            <Array as="points">
              <mxPoint x="425" y="100" />
            </Array>
          </mxGeometry>
        </mxCell>
        <mxCell id="9FrqtK7aW0aEr1jrGt7a-31" value="if sentinel_value == 3" style="rhombus;whiteSpace=wrap;html=1;" vertex="1" parent="1">
          <mxGeometry x="385" y="10" width="80" height="80" as="geometry" />
        </mxCell>
        <mxCell id="9FrqtK7aW0aEr1jrGt7a-35" value="Stop" style="ellipse;whiteSpace=wrap;html=1;" vertex="1" parent="1">
          <mxGeometry x="170" y="60" width="120" height="80" as="geometry" />
        </mxCell>
        <mxCell id="9FrqtK7aW0aEr1jrGt7a-42" value="" style="edgeStyle=orthogonalEdgeStyle;rounded=0;orthogonalLoop=1;jettySize=auto;html=1;" edge="1" parent="1" source="9FrqtK7aW0aEr1jrGt7a-39" target="9FrqtK7aW0aEr1jrGt7a-41">
          <mxGeometry relative="1" as="geometry" />
        </mxCell>
        <mxCell id="9FrqtK7aW0aEr1jrGt7a-39" value="&lt;div&gt;output&lt;/div&gt;&lt;div&gt;total_bill&lt;br&gt;&lt;/div&gt;" style="shape=parallelogram;perimeter=parallelogramPerimeter;whiteSpace=wrap;html=1;fixedSize=1;" vertex="1" parent="1">
          <mxGeometry x="910" y="860" width="120" height="60" as="geometry" />
        </mxCell>
        <mxCell id="9FrqtK7aW0aEr1jrGt7a-44" value="" style="edgeStyle=orthogonalEdgeStyle;rounded=0;orthogonalLoop=1;jettySize=auto;html=1;" edge="1" parent="1" source="9FrqtK7aW0aEr1jrGt7a-41" target="9FrqtK7aW0aEr1jrGt7a-43">
          <mxGeometry relative="1" as="geometry" />
        </mxCell>
        <mxCell id="9FrqtK7aW0aEr1jrGt7a-41" value="&lt;div&gt;output&lt;/div&gt;&lt;div&gt;total_messages&lt;br&gt;&lt;/div&gt;" style="shape=parallelogram;perimeter=parallelogramPerimeter;whiteSpace=wrap;html=1;fixedSize=1;" vertex="1" parent="1">
          <mxGeometry x="1110" y="860" width="120" height="60" as="geometry" />
        </mxCell>
        <mxCell id="9FrqtK7aW0aEr1jrGt7a-46" value="" style="edgeStyle=orthogonalEdgeStyle;rounded=0;orthogonalLoop=1;jettySize=auto;html=1;" edge="1" parent="1" source="9FrqtK7aW0aEr1jrGt7a-43" target="9FrqtK7aW0aEr1jrGt7a-45">
          <mxGeometry relative="1" as="geometry" />
        </mxCell>
        <mxCell id="9FrqtK7aW0aEr1jrGt7a-43" value="&lt;div&gt;output&lt;/div&gt;&lt;div&gt;phone_number&lt;br&gt;&lt;/div&gt;" style="shape=parallelogram;perimeter=parallelogramPerimeter;whiteSpace=wrap;html=1;fixedSize=1;" vertex="1" parent="1">
          <mxGeometry x="1310" y="860" width="120" height="60" as="geometry" />
        </mxCell>
        <mxCell id="9FrqtK7aW0aEr1jrGt7a-47" style="edgeStyle=orthogonalEdgeStyle;rounded=0;orthogonalLoop=1;jettySize=auto;html=1;entryX=1;entryY=0.5;entryDx=0;entryDy=0;" edge="1" parent="1" source="9FrqtK7aW0aEr1jrGt7a-45" target="9FrqtK7aW0aEr1jrGt7a-29">
          <mxGeometry relative="1" as="geometry">
            <mxPoint x="1320" y="280" as="targetPoint" />
            <Array as="points">
              <mxPoint x="1720" y="890" />
              <mxPoint x="1720" y="-50" />
            </Array>
          </mxGeometry>
        </mxCell>
        <mxCell id="9FrqtK7aW0aEr1jrGt7a-45" value="&lt;div&gt;output&lt;/div&gt;&lt;div&gt;area_code&lt;br&gt;&lt;/div&gt;" style="shape=parallelogram;perimeter=parallelogramPerimeter;whiteSpace=wrap;html=1;fixedSize=1;" vertex="1" parent="1">
          <mxGeometry x="1510" y="860" width="120" height="60" as="geometry" />
        </mxCell>
      </root>
    </mxGraphModel>
  </diagram>
</mxfile>
